<svg xmlns="http://www.w3.org/2000/svg" xmlns:xlink="http://www.w3.org/1999/xlink" width="500" zoomAndPan="magnify" viewBox="0 0 375 374.999991" height="500" preserveAspectRatio="xMidYMid meet" version="1.0"><path fill="#242a41" d="M 129.398438 18.316406 C 126.738281 19.121094 124.476562 21.078125 123.003906 23.851562 C 121.613281 26.472656 121.589844 26.488281 116.679688 27.460938 C 105.191406 29.742188 91.621094 35.480469 83.917969 41.3125 C 75.023438 48.046875 66.789062 58.066406 61.828125 68.191406 C 58.167969 75.664062 56.152344 82.847656 54.648438 93.765625 L 53.632812 101.140625 L 45.332031 109.566406 C 40.769531 114.199219 33.511719 121.308594 29.203125 125.363281 C 21.164062 132.929688 20.097656 134.613281 22.515625 135.90625 C 24.308594 136.867188 27.71875 136.636719 35.625 135.027344 C 46.898438 132.734375 54.945312 130.445312 75.152344 123.78125 C 96.261719 116.828125 101.078125 115.574219 110.480469 114.605469 C 119.953125 113.628906 152.703125 114.242188 171.480469 115.75 C 201.589844 118.167969 227.039062 118.917969 232.941406 117.558594 C 236.402344 116.761719 238.261719 115.003906 238.261719 112.527344 C 238.261719 108.996094 231.101562 103.792969 212.257812 93.640625 C 208.195312 91.449219 204.808594 89.609375 204.730469 89.550781 C 204.648438 89.496094 204.171875 87.074219 203.671875 84.171875 C 200.84375 67.890625 194.34375 55.246094 183.027344 44.03125 C 173.617188 34.703125 163.398438 29.574219 148.285156 26.59375 C 146.09375 26.160156 144.886719 25.628906 144.886719 25.097656 C 144.886719 23.707031 141.191406 19.972656 138.6875 18.835938 C 136.222656 17.714844 132.152344 17.488281 129.398438 18.316406 M 66.503906 135.367188 C 58.300781 136.4375 51.320312 139.679688 46.203125 144.800781 C 39.742188 151.261719 36.839844 159.28125 36.316406 172.125 L 35.984375 180.25 L 61.023438 180.25 L 60.664062 178.332031 C 60.207031 175.882812 61.328125 166.769531 62.40625 164.191406 C 65.597656 156.554688 74.746094 154.1875 81.878906 159.160156 C 86.347656 162.277344 88.148438 172.339844 85.871094 181.449219 C 83.117188 192.445312 77.167969 202.238281 51.308594 238.363281 L 36.148438 259.539062 L 36.148438 280.125 L 111.792969 280.125 L 111.792969 258.851562 L 87.515625 258.851562 C 74.160156 258.851562 63.324219 258.652344 63.433594 258.40625 C 63.542969 258.164062 69.097656 250.652344 75.785156 241.710938 C 97.789062 212.296875 103.601562 203.570312 107.414062 194.214844 C 110.988281 185.449219 111.929688 180.875 111.929688 172.273438 C 111.929688 163.425781 110.703125 157.691406 107.550781 151.78125 C 100.941406 139.371094 84.921875 132.96875 66.503906 135.367188 M 157.484375 135.300781 C 145.144531 137.273438 135.9375 143.429688 131.386719 152.761719 C 128.472656 158.742188 127.652344 162.578125 127.316406 171.828125 L 127.011719 180.25 L 150.621094 180.25 L 150.984375 174.785156 C 151.832031 162.140625 155.644531 156.945312 164.09375 156.917969 C 168.714844 156.902344 170.429688 157.425781 172.910156 159.601562 C 175.957031 162.277344 177.105469 166.203125 177.050781 173.75 C 176.957031 187.183594 171.914062 196.34375 141.105469 239.054688 L 126.609375 259.144531 L 126.589844 269.636719 L 126.566406 280.125 L 202.210938 280.125 L 202.210938 258.863281 L 177.804688 258.710938 L 153.398438 258.554688 L 168.078125 239.347656 C 185.335938 216.761719 192.273438 206.6875 196.261719 198.414062 C 200.597656 189.425781 202.273438 183.171875 202.644531 174.597656 C 203.039062 165.53125 201.921875 159.390625 198.660156 152.699219 C 194.683594 144.542969 186.894531 138.523438 177.359375 136.238281 C 172.785156 135.140625 161.742188 134.621094 157.484375 135.300781 M 237.625 137.472656 C 235.617188 139.640625 222.503906 150.144531 217.238281 153.804688 L 212.851562 156.855469 L 212.851562 169.613281 L 232.351562 169.613281 L 232.351562 280.125 L 257.765625 280.125 L 257.765625 135.929688 L 248.410156 135.929688 C 239.085938 135.929688 239.054688 135.933594 237.625 137.472656 M 279.628906 208.027344 L 279.628906 280.210938 L 302.53125 279.976562 C 322.164062 279.777344 325.976562 279.59375 329.269531 278.691406 C 342.613281 275.035156 350.441406 267.40625 354.207031 254.398438 C 355.417969 250.21875 355.566406 248.464844 355.546875 238.757812 C 355.523438 228.492188 355.421875 227.535156 353.925781 223.050781 C 351.078125 214.523438 346.40625 208.722656 340.03125 205.804688 L 336.847656 204.347656 L 339.777344 202.675781 C 345.40625 199.460938 349.824219 192.804688 351.464844 185.082031 C 352.574219 179.847656 352.546875 168.347656 351.414062 162.644531 C 348.824219 149.625 340.484375 140.605469 327.984375 137.316406 C 324.910156 136.503906 320.292969 136.285156 301.9375 136.085938 L 279.628906 135.839844 Z M 303.859375 175.820312 L 303.859375 194.433594 L 309.324219 194.421875 C 312.332031 194.414062 315.988281 194.132812 317.453125 193.796875 C 325.519531 191.957031 329.359375 183.980469 328.089844 171.699219 C 327.53125 166.285156 326.546875 163.820312 323.753906 160.882812 C 321.234375 158.222656 317.40625 157.203125 309.957031 157.203125 L 303.859375 157.203125 Z M 303.859375 237.539062 L 303.859375 258.964844 L 311.984375 258.757812 C 319.65625 258.5625 320.285156 258.457031 323.210938 256.835938 C 328.921875 253.675781 331.214844 248.324219 331.210938 238.160156 C 331.210938 227.601562 328.464844 221.273438 322.648438 218.425781 C 319.867188 217.066406 318.441406 216.816406 311.65625 216.492188 L 303.859375 216.117188 Z M 40.953125 309.25 C 38.128906 310.152344 35.222656 313.121094 34.367188 315.976562 C 32.589844 321.910156 35.6875 326.1875 43.683594 328.839844 C 50.296875 331.03125 51.960938 333.511719 48.882812 336.589844 C 46.597656 338.875 41.710938 338.390625 38.714844 335.585938 C 37.269531 334.230469 36.210938 334.554688 33.847656 337.082031 C 32.636719 338.375 32.546875 338.738281 33.21875 339.546875 C 34.753906 341.398438 39.902344 343.511719 43.585938 343.808594 C 51.5 344.445312 56.835938 340.160156 56.832031 333.183594 C 56.828125 328.386719 54.035156 325.589844 46.863281 323.195312 C 41.082031 321.269531 39.585938 319.082031 42.007812 316.09375 C 43.519531 314.226562 47.519531 314.253906 50.597656 316.15625 L 52.78125 317.503906 L 54.847656 315.511719 L 56.914062 313.515625 L 54.953125 311.871094 C 51.460938 308.941406 45.445312 307.8125 40.953125 309.25 M 79.132812 309.109375 C 68.828125 311.664062 63.417969 321.878906 66.632812 332.703125 C 67.902344 336.980469 72.453125 341.578125 76.875 343.046875 C 80.964844 344.40625 87.441406 344.070312 90.8125 342.320312 C 93.585938 340.882812 97.027344 337.417969 98.578125 334.496094 C 100.261719 331.328125 100.152344 321.484375 98.398438 318.242188 C 94.71875 311.445312 86.125 307.371094 79.132812 309.109375 M 338.804688 309.25 C 335.976562 310.152344 333.070312 313.121094 332.214844 315.976562 C 330.4375 321.910156 333.539062 326.1875 341.535156 328.839844 C 348.203125 331.050781 349.8125 333.507812 346.660156 336.660156 C 345.335938 337.984375 344.765625 338.148438 342.253906 337.90625 C 340.34375 337.722656 338.664062 337.089844 337.28125 336.035156 C 334.972656 334.277344 334.183594 334.421875 331.695312 337.082031 C 330.457031 338.40625 330.382812 338.722656 331.105469 339.59375 C 331.558594 340.144531 333.527344 341.347656 335.476562 342.269531 C 343.019531 345.84375 351.6875 343.503906 354.050781 337.265625 C 355.046875 334.644531 354.800781 330.855469 353.503906 328.726562 C 352.066406 326.367188 349.636719 324.839844 344.710938 323.195312 C 342.640625 322.503906 340.449219 321.441406 339.835938 320.832031 C 337.039062 318.03125 339.988281 313.992188 344.339844 314.664062 C 345.640625 314.863281 347.425781 315.550781 348.308594 316.191406 C 350.414062 317.726562 350.578125 317.695312 352.84375 315.355469 L 354.78125 313.355469 L 352.691406 311.761719 C 348.878906 308.855469 343.238281 307.832031 338.804688 309.25 M 110.167969 326.515625 L 110.316406 343.355469 L 114.007812 343.359375 L 117.703125 343.359375 L 117.703125 329.765625 L 124.054688 329.769531 L 130.410156 329.769531 L 130.203125 326.8125 L 130 323.859375 L 117.703125 323.859375 L 117.703125 315.585938 L 131.296875 315.585938 L 131.296875 309.675781 L 110.019531 309.675781 Z M 140.160156 312.628906 L 140.160156 315.585938 L 149.023438 315.585938 L 149.023438 343.359375 L 156.117188 343.359375 L 156.117188 315.585938 L 165.570312 315.585938 L 165.570312 309.675781 L 140.160156 309.675781 Z M 173.410156 310.414062 C 173.566406 310.820312 175.207031 316.203125 177.058594 322.378906 C 178.671875 327.757812 180.285156 333.136719 181.90625 338.511719 L 183.390625 343.414062 L 187.019531 343.238281 L 190.652344 343.0625 L 193.972656 332.722656 L 197.292969 322.378906 L 198.824219 327.402344 C 199.890625 330.898438 200.941406 334.394531 201.984375 337.894531 L 203.605469 343.359375 L 210.785156 343.359375 L 220.925781 309.625 L 217.105469 309.796875 L 213.28125 309.96875 L 210.40625 320.285156 C 208.824219 325.960938 207.53125 330.945312 207.53125 331.367188 C 207.53125 331.789062 207.324219 332.132812 207.074219 332.132812 C 206.820312 332.132812 205.167969 327.066406 203.402344 320.875 L 200.1875 309.621094 L 197.234375 309.796875 C 194.28125 309.96875 194.28125 309.972656 193.523438 312.628906 C 190.421875 323.507812 187.742188 332.128906 187.46875 332.125 C 187.289062 332.121094 186.105469 328.332031 184.835938 323.703125 C 183.566406 319.074219 182.160156 314.023438 181.710938 312.480469 L 180.890625 309.675781 L 177.007812 309.675781 C 174.148438 309.675781 173.203125 309.867188 173.410156 310.414062 M 235.847656 311.269531 C 229.328125 328.351562 224.078125 342.425781 224.078125 342.835938 C 224.078125 343.125 225.640625 343.359375 227.550781 343.359375 L 231.027344 343.359375 L 232.351562 339.8125 L 233.679688 336.269531 L 239.515625 336.269531 C 242.726562 336.269531 245.550781 336.273438 245.796875 336.277344 C 246.039062 336.28125 246.808594 337.8125 247.503906 339.675781 L 248.765625 343.0625 L 252.425781 343.242188 C 255.730469 343.402344 256.054688 343.3125 255.742188 342.355469 C 255.550781 341.769531 252.769531 334.242188 249.558594 325.628906 L 243.722656 309.96875 L 240.101562 309.792969 C 236.613281 309.625 236.457031 309.679688 235.847656 311.269531 M 264.855469 326.464844 L 264.855469 343.359375 L 271.945312 343.359375 L 271.945312 330.285156 L 273.859375 330.46875 C 275.621094 330.640625 276.050781 331.15625 279.324219 336.992188 L 282.878906 343.332031 L 286.871094 343.34375 C 289.0625 343.351562 290.859375 343.210938 290.859375 343.023438 C 290.859375 342.839844 289.121094 339.746094 287 336.148438 C 284.875 332.550781 283.214844 329.578125 283.304688 329.539062 C 287.6875 327.757812 289.675781 324.785156 289.675781 320.015625 C 289.675781 315.742188 288.285156 313.144531 284.945312 311.183594 C 283.15625 310.132812 281.667969 309.941406 273.867188 309.769531 L 264.855469 309.570312 Z M 300.773438 326.515625 L 300.941406 343.359375 L 322.179688 343.359375 L 322.179688 337.449219 L 307.996094 337.449219 L 307.996094 329.175781 L 320.40625 329.175781 L 320.40625 323.265625 L 307.996094 323.265625 L 307.996094 315.582031 L 321.589844 315.582031 L 321.589844 309.675781 L 311.097656 309.671875 L 300.609375 309.671875 Z M 78.351562 316.109375 C 72.660156 319.582031 71.035156 327.957031 74.976562 333.515625 C 79.164062 339.421875 86.136719 339.503906 90.773438 333.703125 C 92.46875 331.582031 92.585938 331.109375 92.585938 326.5625 C 92.585938 322.117188 92.441406 321.503906 90.894531 319.476562 C 89.960938 318.253906 88.367188 316.75 87.347656 316.128906 C 84.941406 314.660156 80.742188 314.652344 78.351562 316.109375 M 271.945312 320.015625 L 271.945312 324.449219 L 276.082031 324.449219 C 279.433594 324.449219 280.445312 324.222656 281.402344 323.265625 C 283.046875 321.625 282.925781 318.824219 281.132812 317.035156 C 279.890625 315.789062 279.132812 315.585938 275.816406 315.585938 L 271.945312 315.585938 Z M 238.019531 323.453125 C 237.082031 326.113281 236.195312 328.621094 236.042969 329.027344 C 235.84375 329.574219 236.847656 329.765625 239.917969 329.765625 L 244.0625 329.765625 L 242.175781 324.476562 C 241.136719 321.5625 240.15625 319.054688 240.003906 318.902344 C 239.847656 318.746094 238.957031 320.796875 238.019531 323.453125 " fill-opacity="1" fill-rule="evenodd"/></svg>